<mxfile host="app.diagrams.net" modified="2023-07-25T12:33:03.683Z" agent="Mozilla/5.0 (Windows NT 10.0; Win64; x64) AppleWebKit/537.36 (KHTML, like Gecko) Chrome/114.0.0.0 Safari/537.36 Edg/114.0.1823.82" etag="1RUfQ5BL67QgeI2EMyj9" version="21.6.5" type="github">
  <diagram id="R2lEEEUBdFMjLlhIrx00" name="Page-1">
    <mxGraphModel dx="881" dy="484" grid="1" gridSize="10" guides="1" tooltips="1" connect="1" arrows="1" fold="1" page="1" pageScale="1" pageWidth="850" pageHeight="1100" math="0" shadow="0" extFonts="Permanent Marker^https://fonts.googleapis.com/css?family=Permanent+Marker">
      <root>
        <mxCell id="0" />
        <mxCell id="1" parent="0" />
        <mxCell id="ZyE_ZItKhcC6v-lNAR3k-2" value="SCHOOL" style="whiteSpace=wrap;html=1;align=center;" vertex="1" parent="1">
          <mxGeometry x="130" y="830" width="100" height="40" as="geometry" />
        </mxCell>
        <mxCell id="ZyE_ZItKhcC6v-lNAR3k-3" value="has" style="rhombus;whiteSpace=wrap;html=1;" vertex="1" parent="1">
          <mxGeometry x="140" y="690" width="80" height="80" as="geometry" />
        </mxCell>
        <mxCell id="ZyE_ZItKhcC6v-lNAR3k-5" value="" style="endArrow=none;html=1;rounded=0;entryX=0.5;entryY=1;entryDx=0;entryDy=0;exitX=0.5;exitY=0;exitDx=0;exitDy=0;startArrow=ERmandOne;startFill=0;" edge="1" parent="1" source="ZyE_ZItKhcC6v-lNAR3k-2" target="ZyE_ZItKhcC6v-lNAR3k-3">
          <mxGeometry relative="1" as="geometry">
            <mxPoint x="100" y="850" as="sourcePoint" />
            <mxPoint x="260" y="850" as="targetPoint" />
          </mxGeometry>
        </mxCell>
      </root>
    </mxGraphModel>
  </diagram>
</mxfile>
